<?xml version="1.0" encoding="UTF-8"?>
<svg version="1.1" xmlns="http://www.w3.org/2000/svg" width="32" height="32">
<path d="M0 0 C7.92 0 15.84 0 24 0 C24.33 0.99 24.66 1.98 25 3 C25.99 3.33 26.98 3.66 28 4 C28 11.92 28 19.84 28 28 C27.01 28.33 26.02 28.66 25 29 C24.67 29.99 24.34 30.98 24 32 C16.08 32 8.16 32 0 32 C-0.33 31.01 -0.66 30.02 -1 29 C-1.99 28.67 -2.98 28.34 -4 28 C-4 20.08 -4 12.16 -4 4 C-3.01 3.67 -2.02 3.34 -1 3 C-0.67 2.01 -0.34 1.02 0 0 Z " fill="#62A4F2" transform="translate(4,0)"/>
<path d="M0 0 C7.92 0 15.84 0 24 0 C24.33 0.99 24.66 1.98 25 3 C25.99 3.33 26.98 3.66 28 4 C28 11.92 28 19.84 28 28 C27.01 28.33 26.02 28.66 25 29 C24.67 29.99 24.34 30.98 24 32 C16.08 32 8.16 32 0 32 C-0.33 31.01 -0.66 30.02 -1 29 C-1.99 28.67 -2.98 28.34 -4 28 C-4 20.08 -4 12.16 -4 4 C-3.01 3.67 -2.02 3.34 -1 3 C-0.67 2.01 -0.34 1.02 0 0 Z M0 4 C0 11.92 0 19.84 0 28 C7.92 28 15.84 28 24 28 C24 20.08 24 12.16 24 4 C16.08 4 8.16 4 0 4 Z " fill="#262420" transform="translate(4,0)"/>
<path d="M0 0 C7.92 0 15.84 0 24 0 C24 7.92 24 15.84 24 24 C21.69 24 19.38 24 17 24 C17 22.68 17 21.36 17 20 C18.32 19.34 19.64 18.68 21 18 C21 16.35 21 14.7 21 13 C21.66 13 22.32 13 23 13 C23 12.34 23 11.68 23 11 C21.68 11 20.36 11 19 11 C19 8.69 19 6.38 19 4 C20.32 4 21.64 4 23 4 C23 3.01 23 2.02 23 1 C17.06 1 11.12 1 5 1 C5 8.26 5 15.52 5 23 C3.35 23.33 1.7 23.66 0 24 C0 16.08 0 8.16 0 0 Z " fill="#0B66D4" transform="translate(4,4)"/>
<path d="M0 0 C0.66 0 1.32 0 2 0 C2 0.99 2 1.98 2 3 C1.01 3 0.02 3 -1 3 C-1 10.92 -1 18.84 -1 27 C6.59 27 14.18 27 22 27 C22 27.99 22 28.98 22 30 C21.34 30 20.68 30 20 30 C20 29.34 20 28.68 20 28 C19.34 28 18.68 28 18 28 C18 28.66 18 29.32 18 30 C17.34 30 16.68 30 16 30 C16 29.34 16 28.68 16 28 C15.34 28 14.68 28 14 28 C14 28.66 14 29.32 14 30 C13.34 30 12.68 30 12 30 C12 29.34 12 28.68 12 28 C11.34 28 10.68 28 10 28 C10 28.66 10 29.32 10 30 C9.34 30 8.68 30 8 30 C8 29.34 8 28.68 8 28 C7.34 28 6.68 28 6 28 C6 28.66 6 29.32 6 30 C5.34 30 4.68 30 4 30 C4 29.34 4 28.68 4 28 C3.34 28 2.68 28 2 28 C2 28.66 2 29.32 2 30 C1.34 30 0.68 30 0 30 C0 29.34 0 28.68 0 28 C-1.65 27.67 -3.3 27.34 -5 27 C-5 19.08 -5 11.16 -5 3 C-3.35 2.67 -1.7 2.34 0 2 C0 1.34 0 0.68 0 0 Z " fill="#3A3726" transform="translate(5,1)"/>
<path d="M0 0 C2.01822917 0.06510417 4.03645833 0.13020833 6.0546875 0.1953125 C8.14369947 3.58995696 8.39830356 6.24372779 8.0546875 10.1953125 C6.0546875 12.1953125 6.0546875 12.1953125 4.109375 12.390625 C2.09114583 12.32552083 0.07291667 12.26041667 -1.9453125 12.1953125 C-4.03432447 8.80066804 -4.28892856 6.14689721 -3.9453125 2.1953125 C-1.9453125 0.1953125 -1.9453125 0.1953125 0 0 Z " fill="#91744E" transform="translate(13.9453125,9.8046875)"/>
<path d="M0 0 C6.93 0 13.86 0 21 0 C21 7.92 21 15.84 21 24 C18.69 24 16.38 24 14 24 C14 22.68 14 21.36 14 20 C15.32 19.34 16.64 18.68 18 18 C18 16.35 18 14.7 18 13 C18.66 13 19.32 13 20 13 C20 12.34 20 11.68 20 11 C18.68 11 17.36 11 16 11 C16 8.69 16 6.38 16 4 C17.32 4 18.64 4 20 4 C20 3.01 20 2.02 20 1 C10.595 1.495 10.595 1.495 1 2 C0.67 1.34 0.34 0.68 0 0 Z " fill="#5092E0" transform="translate(7,4)"/>
<path d="M0 0 C0.66 0 1.32 0 2 0 C2 0.66 2 1.32 2 2 C3.65 2.33 5.3 2.66 7 3 C7 4.98 7 6.96 7 9 C6.01 9.33 5.02 9.66 4 10 C4 10.66 4 11.32 4 12 C4.66 12 5.32 12 6 12 C6 12.66 6 13.32 6 14 C5.34 14 4.68 14 4 14 C4 14.66 4 15.32 4 16 C4.66 16 5.32 16 6 16 C6 16.66 6 17.32 6 18 C5.34 18 4.68 18 4 18 C4 18.66 4 19.32 4 20 C4.66 20 5.32 20 6 20 C6 20.66 6 21.32 6 22 C5.34 22 4.68 22 4 22 C4 22.66 4 23.32 4 24 C4.66 24 5.32 24 6 24 C6 24.66 6 25.32 6 26 C5.01 26 4.02 26 3 26 C3 18.41 3 10.82 3 3 C2.01 3 1.02 3 0 3 C0 2.01 0 1.02 0 0 Z " fill="#433F2B" transform="translate(25,1)"/>
<path d="M0 0 C4.95 0.99 4.95 0.99 10 2 C10.33 3.65 10.66 5.3 11 7 C7.37 7 3.74 7 0 7 C0 4.69 0 2.38 0 0 Z " fill="#63A8FA" transform="translate(9,20)"/>
<path d="M0 0 C1.32 0 2.64 0 4 0 C4 0.66 4 1.32 4 2 C3.34 2 2.68 2 2 2 C2 3.65 2 5.3 2 7 C2.66 7.33 3.32 7.66 4 8 C2.02 8.33 0.04 8.66 -2 9 C-2 10.32 -2 11.64 -2 13 C-6.29 13 -10.58 13 -15 13 C-15 12.67 -15 12.34 -15 12 C-11.04 12 -7.08 12 -3 12 C-3.33 10.35 -3.66 8.7 -4 7 C-2.68 6.34 -1.36 5.68 0 5 C0 3.35 0 1.7 0 0 Z " fill="#539BF1" transform="translate(23,15)"/>
<path d="M0 0 C0.33 0 0.66 0 1 0 C1 4.29 1 8.58 1 13 C-1.31 13 -3.62 13 -6 13 C-6 11.68 -6 10.36 -6 9 C-4.68 8.34 -3.36 7.68 -2 7 C-2 5.35 -2 3.7 -2 2 C-1.34 2 -0.68 2 0 2 C0 1.34 0 0.68 0 0 Z " fill="#4B88D1" transform="translate(27,15)"/>
<path d="M0 0 C0.33 1.32 0.66 2.64 1 4 C1.66 4 2.32 4 3 4 C3 7.96 3 11.92 3 16 C1.68 15.67 0.36 15.34 -1 15 C-0.01 15 0.98 15 2 15 C2 14.01 2 13.02 2 12 C1.01 11.67 0.02 11.34 -1 11 C-0.67 7.37 -0.34 3.74 0 0 Z " fill="#1D406B" transform="translate(6,10)"/>
<path d="M0 0 C3.875 0.875 3.875 0.875 5 2 C5.04092937 4.33297433 5.04241723 6.66705225 5 9 C4.01 9.495 4.01 9.495 3 10 C2.67 9.01 2.34 8.02 2 7 C1.34 7 0.68 7 0 7 C0 4.69 0 2.38 0 0 Z " fill="#1757A4" transform="translate(4,4)"/>
<path d="M0 0 C1.32 0 2.64 0 4 0 C4 2.31 4 4.62 4 7 C2.68 7 1.36 7 0 7 C0 4.69 0 2.38 0 0 Z " fill="#474A6C" transform="translate(23,8)"/>
<path d="M0 0 C1.65 0 3.3 0 5 0 C5 0.99 5 1.98 5 3 C3.35 3.33 1.7 3.66 0 4 C0 2.68 0 1.36 0 0 Z " fill="#4479B9" transform="translate(21,24)"/>
</svg>
