<?xml version="1.0" encoding="UTF-8"?>
<svg version="1.1" xmlns="http://www.w3.org/2000/svg" width="32" height="32">
<path d="M0 0 C10.56 0 21.12 0 32 0 C32 4.62 32 9.24 32 14 C21.44 14 10.88 14 0 14 C0 9.38 0 4.76 0 0 Z " fill="#229380" transform="translate(0,9)"/>
<path d="M0 0 C1.32 0 2.64 0 4 0 C4 0.66 4 1.32 4 2 C6.64 2 9.28 2 12 2 C12 3.98 12 5.96 12 8 C12.66 8 13.32 8 14 8 C14 6.02 14 4.04 14 2 C15.32 2 16.64 2 18 2 C18 3.98 18 5.96 18 8 C18.66 8 19.32 8 20 8 C20 6.02 20 4.04 20 2 C20.99 2 21.98 2 23 2 C23.09765625 8.15234375 23.09765625 8.15234375 23 10 C22 11 22 11 19.86694336 11.11352539 C18.95050049 11.10828857 18.03405762 11.10305176 17.08984375 11.09765625 C16.10048828 11.09443359 15.11113281 11.09121094 14.09179688 11.08789062 C13.05087891 11.07951172 12.00996094 11.07113281 10.9375 11.0625 C9.89271484 11.05798828 8.84792969 11.05347656 7.77148438 11.04882812 C5.18096546 11.03699927 2.59047578 11.01906319 0 11 C0 7.37 0 3.74 0 0 Z " fill="#1C816F" transform="translate(0,9)"/>
<path d="M0 0 C10.56 0 21.12 0 32 0 C32 0.99 32 1.98 32 3 C21.44 3 10.88 3 0 3 C0 2.01 0 1.02 0 0 Z " fill="#ECBD3A" transform="translate(0,20)"/>
<path d="M0 0 C1.32 0 2.64 0 4 0 C4 1.98 4 3.96 4 6 C4.66 6 5.32 6 6 6 C6 4.02 6 2.04 6 0 C6.99 0 7.98 0 9 0 C9.09765625 6.15234375 9.09765625 6.15234375 9 8 C8 9 8 9 5.71484375 9.09765625 C4.34005859 9.08025391 4.34005859 9.08025391 2.9375 9.0625 C2.01839844 9.05347656 1.09929688 9.04445313 0.15234375 9.03515625 C-0.55792969 9.02355469 -1.26820312 9.01195312 -2 9 C-1.34 6.03 -0.68 3.06 0 0 Z " fill="#1E7A6B" transform="translate(14,11)"/>
<path d="M0 0 C1.32 0 2.64 0 4 0 C4 2.31 4 4.62 4 7 C2.68 7 1.36 7 0 7 C0 4.69 0 2.38 0 0 Z " fill="#245859" transform="translate(25,11)"/>
<path d="M0 0 C0.99 0 1.98 0 3 0 C3 2.64 3 5.28 3 8 C2.01 8 1.02 8 0 8 C0 5.36 0 2.72 0 0 Z " fill="#235455" transform="translate(9,11)"/>
<path d="M0 0 C2.97 0.33 5.94 0.66 9 1 C9 1.66 9 2.32 9 3 C5.7 3 2.4 3 -1 3 C-0.67 2.01 -0.34 1.02 0 0 Z " fill="#1A816E" transform="translate(23,17)"/>
<path d="M0 0 C0.99 0 1.98 0 3 0 C3 2.31 3 4.62 3 7 C2.01 7 1.02 7 0 7 C0 4.69 0 2.38 0 0 Z " fill="#225254" transform="translate(14,11)"/>
<path d="M0 0 C0.99 0 1.98 0 3 0 C3 2.31 3 4.62 3 7 C2.01 7 1.02 7 0 7 C0 4.69 0 2.38 0 0 Z " fill="#235053" transform="translate(3,11)"/>
<path d="M0 0 C0.99 0 1.98 0 3 0 C3 2.31 3 4.62 3 7 C2.01 7 1.02 7 0 7 C0 4.69 0 2.38 0 0 Z " fill="#245053" transform="translate(20,11)"/>
</svg>
