<?xml version="1.0" encoding="UTF-8"?>
<svg version="1.1" xmlns="http://www.w3.org/2000/svg" width="32" height="32">
<path d="M0 0 C8.58 0 17.16 0 26 0 C26 10.56 26 21.12 26 32 C17.42 32 8.84 32 0 32 C0 21.44 0 10.88 0 0 Z " fill="#455C6D" transform="translate(3,0)"/>
<path d="M0 0 C4.10703441 0.85563217 5.55401113 2.24378009 8 5.625 C8.63007693 9.61548721 8.63021887 11.64185857 6.4375 15.0625 C3.18129203 17.1498128 0.79004984 16.9165423 -3 16.625 C-3.33 18.605 -3.66 20.585 -4 22.625 C-5.65 22.955 -7.3 23.285 -9 23.625 C-9.125 21.25 -9.125 21.25 -9 18.625 C-8.34 17.965 -7.68 17.305 -7 16.625 C-7.2981424 15.28335921 -7.64141484 13.95176508 -8 12.625 C-8.48164919 8.20988241 -8.51401369 6.33554833 -5.875 2.6875 C-3 0.625 -3 0.625 0 0 Z " fill="#E3E4E4" transform="translate(16,2.375)"/>
<path d="M0 0 C3.63 0 7.26 0 11 0 C11.33 1.32 11.66 2.64 12 4 C9.59454362 5.20272819 8.05003047 5.10071472 5.375 5.0625 C4.14910156 5.04896484 4.14910156 5.04896484 2.8984375 5.03515625 C1.95871094 5.01775391 1.95871094 5.01775391 1 5 C0.67 3.35 0.34 1.7 0 0 Z " fill="#E86D5A" transform="translate(15,22)"/>
<path d="M0 0 C0.99 0 1.98 0 3 0 C3.25 5.625 3.25 5.625 1 9 C-0.32 9 -1.64 9 -3 9 C-3.2519555 5.97653399 -3.20421041 4.3597993 -1.6875 1.6875 C-1.130625 1.130625 -0.57375 0.57375 0 0 Z " fill="#CCB265" transform="translate(10,17)"/>
<path d="M0 0 C0.33 0 0.66 0 1 0 C0.67 2.31 0.34 4.62 0 7 C-0.99 7 -1.98 7 -3 7 C-2.25 2.25 -2.25 2.25 0 0 Z " fill="#EAC35D" transform="translate(12,18)"/>
</svg>
