<?xml version="1.0" encoding="UTF-8"?>
<svg version="1.1" xmlns="http://www.w3.org/2000/svg" width="32" height="32">
<path d="M0 0 C0 10.56 0 21.12 0 32 C-10.70684155 30.84695553 -21.34838524 29.58641071 -32 28 C-32 20.08 -32 12.16 -32 4 C-28.08597184 3.4277139 -24.17175055 2.85716658 -20.25683594 2.29101562 C-18.27250112 2.00326294 -16.28859113 1.71258563 -14.3046875 1.421875 C-13.05429687 1.24140625 -11.80390625 1.0609375 -10.515625 0.875 C-8.78747559 0.62363281 -8.78747559 0.62363281 -7.02441406 0.3671875 C-4 0 -4 0 0 0 Z " fill="#4BAF4F" transform="translate(32,0)"/>
<path d="M0 0 C5.94 0 11.88 0 18 0 C18 5.28 18 10.56 18 16 C12.06 15.34 6.12 14.68 0 14 C0 9.38 0 4.76 0 0 Z " fill="#FFC106" transform="translate(14,16)"/>
<path d="M0 0 C4.62 0 9.24 0 14 0 C14 4.29 14 8.58 14 13 C8.97812188 13.0749534 4.96384404 12.99276881 0 12 C0 8.04 0 4.08 0 0 Z " fill="#2096F3" transform="translate(0,16)"/>
<path d="M0 0 C0 4.29 0 8.58 0 13 C-4.62 13 -9.24 13 -14 13 C-14 9.04 -14 5.08 -14 1 C-9.23692563 0.04738513 -4.8333472 -0.08333357 0 0 Z " fill="#F34235" transform="translate(14,3)"/>
</svg>
